<?xml version="1.0" encoding="UTF-8" standalone="no"?>
<svg
   xmlns:dc="http://purl.org/dc/elements/1.1/"
   xmlns:cc="http://creativecommons.org/ns#"
   xmlns:rdf="http://www.w3.org/1999/02/22-rdf-syntax-ns#"
   xmlns:svg="http://www.w3.org/2000/svg"
   xmlns="http://www.w3.org/2000/svg"
   xmlns:sodipodi="http://sodipodi.sourceforge.net/DTD/sodipodi-0.dtd"
   xmlns:inkscape="http://www.inkscape.org/namespaces/inkscape"
   fill-opacity="1"
   color-rendering="auto"
   color-interpolation="auto"
   stroke="black"
   text-rendering="auto"
   stroke-linecap="square"
   stroke-miterlimit="10"
   stroke-opacity="1"
   shape-rendering="auto"
   fill="black"
   stroke-dasharray="none"
   font-weight="normal"
   stroke-width="1"
   font-family="'Dialog'"
   font-style="normal"
   stroke-linejoin="miter"
   font-size="12"
   stroke-dashoffset="0"
   image-rendering="auto"
   id="svg2"
   version="1.1"
   inkscape:version="0.48.5 r10040"
   width="100%"
   height="100%"
   sodipodi:docname="mobile_phone_icon.svg">
  <metadata
     id="metadata13">
    <rdf:RDF>
      <cc:Work
         rdf:about="">
        <dc:format>image/svg+xml</dc:format>
        <dc:type
           rdf:resource="http://purl.org/dc/dcmitype/StillImage" />
        <dc:title></dc:title>
      </cc:Work>
    </rdf:RDF>
  </metadata>
  <sodipodi:namedview
     pagecolor="#ffffff"
     bordercolor="#666666"
     borderopacity="1"
     objecttolerance="10"
     gridtolerance="10"
     guidetolerance="10"
     inkscape:pageopacity="0"
     inkscape:pageshadow="2"
     inkscape:window-width="640"
     inkscape:window-height="480"
     id="namedview11"
     showgrid="false"
     inkscape:zoom="0.22425739"
     inkscape:cx="372.04724"
     inkscape:cy="526.18109"
     inkscape:window-x="0"
     inkscape:window-y="24"
     inkscape:window-maximized="0"
     inkscape:current-layer="svg2" />
  <!--Unicode Character 'MOBILE PHONE' (U+1F4F1)-->
  <defs
     id="genericDefs" />
  <g
     id="g5"
     inkscape:export-filename="/home/ucas/Phonegap/skvd/www/img/mobile_phone_icon.png"
     inkscape:export-xdpi="7.77"
     inkscape:export-ydpi="7.77">
    <g
       id="g7">
      <path
         d="M127.4062 316.8281 Q127.4062 323.4375 122.0625 330.1875 Q116.4375 337.5 110.1094 337.5 L29.25 337.5 Q22.6406 337.5 16.875 329.9062 Q11.5312 322.7344 11.5312 315.8438 L11.5312 132.1875 Q11.5312 121.9219 17.5781 115.3125 Q23.625 108.7031 33.8906 109.2656 Q35.1562 103.6406 34.7344 90.4219 Q34.3125 77.9062 36 72 Q36.8438 69.0469 39.6562 69.0469 Q46.8281 69.0469 47.5312 75.375 Q47.3906 81.1406 47.3906 86.7656 Q47.9531 91.5469 48.2344 107.5781 L48.7969 108.8438 L107.1562 108.8438 Q115.875 108.8438 121.6406 115.0312 Q127.4062 121.2188 127.4062 129.9375 L127.4062 316.8281 ZM41.4844 108.7031 L41.4844 71.4375 L39.9375 71.4375 Q38.9531 72.1406 38.3906 83.25 Q37.2656 104.2031 37.2656 104.0625 L37.2656 108.7031 L41.4844 108.7031 ZM108.5625 207.7031 L108.5625 131.9062 L30.7969 131.9062 L30.7969 207.7031 L108.5625 207.7031 ZM115.1719 214.4531 L115.1719 135.5625 Q114.3281 134.5781 111.7969 132.3281 L111.7969 211.6406 L31.2188 211.6406 Q31.6406 212.625 33.0469 214.4531 L115.1719 214.4531 ZM113.9062 237.2344 L113.9062 223.4531 L87.8906 223.4531 L87.8906 237.2344 L113.9062 237.2344 ZM113.9062 254.6719 L113.9062 241.3125 L87.8906 241.3125 L87.8906 254.6719 L113.9062 254.6719 ZM121.6406 125.2969 L121.6406 122.4844 Q121.6406 121.2188 118.0547 117.7734 Q114.4688 114.3281 112.9219 113.7656 Q108 111.7969 105.3281 111.7969 L34.4531 111.7969 Q21.9375 111.7969 17.7188 122.4844 Q15.8906 127.125 15.8906 129.0938 L15.8906 319.3594 Q15.8906 322.875 21.5156 328.3594 L21.5156 128.9531 Q21.5156 126.5625 23.7656 123.0469 Q28.8281 115.3125 43.0312 115.3125 L97.0312 115.3125 Q116.0156 115.3125 121.6406 125.2969 ZM113.9062 271.2656 L113.9062 258.75 L87.8906 258.75 L87.8906 271.2656 L113.9062 271.2656 ZM84.2344 254.6719 L84.2344 223.4531 L55.5469 223.4531 L55.5469 254.6719 L84.2344 254.6719 ZM113.9062 286.0312 L113.9062 274.9219 L87.8906 274.9219 L87.8906 286.0312 L113.9062 286.0312 ZM52.0312 237.2344 L52.0312 223.4531 L26.4375 223.4531 L26.4375 237.2344 L52.0312 237.2344 ZM84.2344 271.2656 L84.2344 258.75 L55.5469 258.75 L55.5469 271.2656 L84.2344 271.2656 ZM113.9062 303.8906 L113.9062 290.5312 L87.8906 290.5312 L87.8906 303.8906 L113.9062 303.8906 ZM52.0312 254.6719 L52.0312 241.3125 L26.4375 241.3125 L26.4375 254.6719 L52.0312 254.6719 ZM84.2344 286.0312 L84.2344 274.9219 L55.5469 274.9219 L55.5469 286.0312 L84.2344 286.0312 ZM113.9062 318.6562 L113.9062 307.5469 L87.8906 307.5469 L87.8906 318.6562 L113.9062 318.6562 ZM52.0312 271.2656 L52.0312 258.75 L26.4375 258.75 L26.4375 271.2656 L52.0312 271.2656 ZM84.2344 303.8906 L84.2344 290.5312 L55.5469 290.5312 L55.5469 303.8906 L84.2344 303.8906 ZM52.0312 286.0312 L52.0312 274.9219 L26.4375 274.9219 L26.4375 286.0312 L52.0312 286.0312 ZM84.2344 318.6562 L84.2344 307.5469 L55.8281 307.5469 L55.8281 318.6562 L84.2344 318.6562 ZM52.0312 303.8906 L52.0312 290.5312 L26.4375 290.5312 L26.4375 303.8906 L52.0312 303.8906 ZM51.75 318.6562 L51.75 307.5469 L26.4375 307.5469 L26.4375 318.6562 L51.75 318.6562 ZM78.1875 245.9531 L76.7812 247.3594 L63.7031 247.3594 Q63 247.3594 61.5938 245.9531 L61.5938 231.75 Q64.4062 230.3438 64.9688 230.3438 L76.7812 230.3438 L78.1875 231.75 L78.1875 245.9531 ZM75.5156 242.8594 L75.5156 235.2656 Q74.3906 233.4375 71.5781 233.4375 Q66.375 233.4375 64.6875 234.8438 L64.6875 242.8594 Q66.7969 244.2656 70.1719 244.2656 Q73.2656 244.2656 75.5156 242.8594 Z"
         stroke="none"
         id="path9" />
    </g>
  </g>
</svg>
